<svg width="181" height="52" viewBox="0 0 181 52" fill="none" xmlns="http://www.w3.org/2000/svg">
<path d="M40.5048 33.7007H41.9415C38.9208 42.1366 28.8272 42.0998 30.1165 35.1374C30.7427 31.6746 31.2585 28.5066 31.811 25.5964C32.5478 21.581 28.864 23.9387 27.2063 27.033L24.6645 40H19.5809L24.1856 17.1236C22.6384 17.271 20.907 17.0131 19.0651 16.6079L14.1657 40H9.15572L14.2394 15.7606C10.5187 15.3186 7.71904 15.5765 6.6139 17.3815C5.84031 18.5972 6.35604 21.5074 7.3875 24.086L2.37754 26.37C1.82497 20.4022 2.93011 16.6079 5.02987 14.6187C8.08742 11.7085 13.2447 12.1137 18.0705 13.182C22.9699 14.2871 27.722 15.1344 30.1165 12.3716L27.8326 24.0492C31.7374 19.8497 37.8525 20.1444 36.3421 28.2487C35.8632 30.7905 35.4212 33.6639 35.0159 36.132C34.1318 40.5157 39.326 37.2372 40.5048 33.7007ZM46.1341 25.5964C48.4549 21.7284 51.5861 19.9233 56.4119 22.7967L52.9859 25.6332C50.0021 23.4598 47.2761 26.2963 45.3973 29.3538L43.3344 40H38.1403L41.8609 21.581H46.9077L46.1341 25.5964ZM65.8968 33.4797H67.3335C64.4233 41.4367 53.2982 43.5733 55.3611 33.2587L57.7924 21.581H62.8761C61.6973 27.8066 60.85 31.601 60.0027 35.9478C59.1554 40.3684 64.6443 37.0898 65.8968 33.4797ZM61.0342 19.5181C60.2237 19.5181 59.5238 19.2602 58.9713 18.7077C58.4555 18.1551 58.1977 17.492 58.1977 16.6448C58.2345 15.8343 58.4924 15.1712 59.0449 14.5818C59.6343 14.0293 60.2974 13.7346 61.1447 13.7346C61.992 13.7346 62.6182 14.0293 63.1708 14.5818C63.7602 15.1712 64.0549 15.8343 64.0549 16.6448C64.0549 17.492 63.7233 18.1551 63.1339 18.7077C62.5445 19.2602 61.8446 19.5181 61.0342 19.5181ZM76.374 21.581H79.4316C77.0371 26.4805 73.5375 34.548 70.7378 40H65.6173L65.6542 21.581H70.7378L70.6641 34.1796L76.374 21.581ZM92.3438 33.6639H93.67C90.7966 38.9685 87.7759 40.3315 83.5764 40.221C76.614 40 76.5035 31.1957 79.9294 25.7437C82.7291 21.3968 87.5181 20.4759 89.6178 22.2441C91.4965 23.7545 91.5334 26.5542 90.4282 28.7276C88.7705 31.7851 85.6762 32.9271 82.5081 32.8166C82.5449 34.5848 83.208 36.6477 84.792 37.4213C87.6286 38.7475 90.6124 36.5372 92.3438 33.6639ZM82.6554 30.68C82.6554 30.8274 82.6186 30.9747 82.6186 31.0852C88.439 31.2694 89.1021 24.2702 88.1811 23.5334C87.4444 22.9809 85.8235 23.6808 84.4973 25.7806C83.7237 26.9594 83.0607 28.6171 82.6554 30.68ZM110.189 12.1874L110.263 31.2326L117.667 12.3347L122.419 12.2979L122.751 31.1221L130.008 12.2979H133.434L122.677 40H117.63L117.667 21.139L110.263 40H105.216L105.253 15.2817C102.6 15.5028 99.2849 15.687 98.3271 17.3078C97.4798 19.1129 97.9219 21.9494 99.4322 24.086L94.2749 26.37C93.4277 21.0653 94.2381 17.4183 96.5589 15.3554C99.6901 12.7031 104.847 12.1874 110.189 12.1874ZM143.536 33.6639H144.862C141.988 38.9685 138.968 40.3315 134.768 40.221C127.806 40 127.695 31.1957 131.121 25.7437C133.921 21.3968 138.71 20.4759 140.81 22.2441C142.688 23.7545 142.725 26.5542 141.62 28.7276C139.962 31.7851 136.868 32.9271 133.7 32.8166C133.737 34.5848 134.4 36.6477 135.984 37.4213C138.82 38.7475 141.804 36.5372 143.536 33.6639ZM133.847 30.68C133.847 30.8274 133.81 30.9747 133.81 31.0852C139.631 31.2694 140.294 24.2702 139.373 23.5334C138.636 22.9809 137.015 23.6808 135.689 25.7806C134.916 26.9594 134.252 28.6171 133.847 30.68ZM153.367 33.8112H154.767C152.004 41.363 141.616 43.3891 143.568 33.5534L147.436 14.2134H152.409C151.157 20.4759 148.762 31.9325 147.915 36.1689C147.105 40.3684 152.225 37.2372 153.367 33.8112ZM163.044 33.8112H164.444C161.681 41.363 151.293 43.3891 153.245 33.5534L157.113 14.2134H162.086C160.834 20.4759 158.439 31.9325 157.592 36.1689C156.782 40.3684 161.902 37.2372 163.044 33.8112Z" fill="#275DAD"/>
<ellipse cx="175.107" cy="34.3185" rx="5.75588" ry="5.75597" fill="#FFDC32"/>
</svg>
