<svg width="258" height="188" viewBox="0 0 258 188" fill="none" xmlns="http://www.w3.org/2000/svg">
<g clip-path="url(#clip0_14412_17595)">
<path d="M81.8651 189.321C82.4247 186.854 82.9087 184.554 83.4683 182.103C73.3727 186.192 62.1605 186.594 51.7985 183.238C41.5444 179.893 33.0296 172.131 27.1009 163.112C19.0247 150.825 11.1299 138.31 3.02344 126.008C11.5191 113.188 24.2673 103.783 39.0187 99.4509C46.9833 107.321 55.4233 114.694 64.291 121.529C69.3575 109.801 74.4392 98.0133 81.1997 87.1787C87.9601 76.344 96.3237 65.9937 107.818 60.4855C117.974 55.5542 128.772 52.0751 139.896 50.1503C141.044 51.7352 142.59 52.9893 144.377 53.7863C146.164 54.5833 148.129 54.8949 150.075 54.6899C152.092 54.5027 154.028 53.8061 155.703 52.6654C157.377 51.5247 158.735 49.9772 159.648 48.168C171.693 49.1122 183.545 51.7457 194.857 55.9913C211.793 62.7198 226.01 74.895 235.268 90.5985C242.211 101.887 248.123 113.779 252.933 126.129C255.958 134.33 258.605 143.001 257.682 151.702C257.058 157.524 254.88 163.07 251.374 167.759C247.869 172.448 243.167 176.105 237.761 178.348C232.355 180.591 226.446 181.337 220.653 180.506C214.86 179.676 209.397 177.3 204.839 173.629C204.839 178.849 204.839 183.495 204.839 188.761L81.8651 189.321Z" fill="#7090D1"/>
<path d="M131.758 52.813C132.752 55.3285 134.301 57.5871 136.288 59.421C138.276 61.255 140.651 62.6169 143.237 63.4055C145.835 64.1642 148.557 64.3997 151.247 64.0984C153.936 63.797 156.54 62.9649 158.905 61.6502C163.663 58.9892 167.363 54.7744 169.386 49.7109" stroke="#060305" stroke-width="0.591398" stroke-linecap="round" stroke-linejoin="round"/>
<path d="M133.867 56.1109L137.058 54.8398" stroke="#060305" stroke-width="0.591398" stroke-linecap="round" stroke-linejoin="round"/>
<path d="M142.578 57.8086L139.734 61.637" stroke="#060305" stroke-width="0.591398" stroke-linecap="round" stroke-linejoin="round"/>
<path d="M149.333 59.1211L148.531 63.6607" stroke="#060305" stroke-width="0.591398" stroke-linecap="round" stroke-linejoin="round"/>
<path d="M155.641 57.3203L158.227 61.2244" stroke="#060305" stroke-width="0.591398" stroke-linecap="round" stroke-linejoin="round"/>
<path d="M161.148 52.9609L165.444 54.7768" stroke="#060305" stroke-width="0.591398" stroke-linecap="round" stroke-linejoin="round"/>
<path d="M204.734 174.971L202.178 137.7C200.968 120.223 199.652 102.246 201.769 84.8438" stroke="#060305" stroke-width="0.591398" stroke-linecap="round" stroke-linejoin="round"/>
<path d="M225.102 109.512C235.617 117.097 244.814 126.36 252.325 136.931" stroke="#060305" stroke-width="0.591398" stroke-linecap="round" stroke-linejoin="round"/>
<path d="M73.6144 132.812L63.8594 121.055C65.6894 122.144 67.9882 122.78 69.8182 123.869" stroke="#060305" stroke-width="0.591398" stroke-linecap="round" stroke-linejoin="round"/>
<path d="M97.8813 81.7109V134.341C97.8813 144.646 91.0755 153.71 87.9297 163.515" stroke="#060305" stroke-width="0.591398" stroke-linecap="round" stroke-linejoin="round"/>
<path d="M92.8906 85.9531L97.4278 91.0678" stroke="#060305" stroke-width="0.591398" stroke-linecap="round" stroke-linejoin="round"/>
<path d="M203.43 153.818C207.841 154.044 212.253 153.384 216.406 151.877C220.558 150.37 224.367 148.048 227.609 145.045C230.851 142.043 233.459 138.422 235.28 134.396C237.102 130.37 238.1 126.02 238.215 121.602" stroke="#060305" stroke-width="0.591398" stroke-linecap="round" stroke-linejoin="round"/>
<path d="M206.734 139.973L210.016 153.123" stroke="#060305" stroke-width="0.591398" stroke-linecap="round" stroke-linejoin="round"/>
<path d="M214.578 138.656L220.628 149.597" stroke="#060305" stroke-width="0.591398" stroke-linecap="round" stroke-linejoin="round"/>
<path d="M220.805 133.633L227.399 140.745" stroke="#060305" stroke-width="0.591398" stroke-linecap="round" stroke-linejoin="round"/>
<path d="M224.289 126.504L234.422 135.356" stroke="#060305" stroke-width="0.591398" stroke-linecap="round" stroke-linejoin="round"/>
<path d="M226.953 118.031L237.026 126.066" stroke="#060305" stroke-width="0.591398" stroke-linecap="round" stroke-linejoin="round"/>
<path d="M137.474 0.757812C135.247 6.93585 134.106 13.4533 134.102 20.0211" stroke="#060305" stroke-width="0.591398" stroke-linecap="round" stroke-linejoin="round"/>
<path d="M168.706 9.39975L164.834 13.9394L165.772 8.55235L140.439 0.804688C136.969 7.04984 134.725 13.9019 133.83 20.991C132.968 27.6794 140.031 33.7928 146.126 36.683C149.2 38.0982 152.562 38.775 155.944 38.6594C159.326 38.5438 162.635 37.639 165.605 36.0172C168.418 27.9064 171.821 19.3718 174.68 11.2005L168.706 9.39975Z" fill="#060305"/>
<path d="M160.313 51.0403C160.011 48.3165 159.875 45.7289 159.572 43.0051C162.597 42.8689 165.909 42.0821 167.815 39.7063C168.809 38.4853 169.336 36.9499 169.302 35.3752C169.268 33.8006 168.674 32.2897 167.627 31.1132C166.581 29.9368 165.15 29.1717 163.59 28.955C162.031 28.7384 160.446 29.0843 159.119 29.9309C158.68 26.0722 157.712 21.8655 157.258 18.0068C156.282 18.5879 155.198 18.964 154.073 19.1123C152.947 19.2606 151.802 19.1779 150.71 18.8693C149.653 18.5405 148.679 17.9915 147.85 17.2586C147.021 16.5257 146.356 15.6255 145.9 14.6172C145.509 15.0246 145.04 15.3476 144.519 15.5662C143.999 15.7849 143.44 15.8945 142.875 15.8883C142.316 15.9583 141.748 15.9067 141.21 15.737C140.672 15.5672 140.178 15.2833 139.76 14.9047C138.731 15.9791 137.31 16.7054 136.296 17.7949C132.53 21.7747 132.077 27.5703 131.275 32.9271C130.728 35.9225 131.207 39.0152 132.636 41.7037C134.173 44.3475 136.636 46.3264 139.548 47.2572C139.548 49.1336 139.321 50.7982 139.382 52.6746C140.655 54.3527 142.317 55.6963 144.225 56.5898C146.132 57.4834 148.228 57.9002 150.331 57.8044C152.414 57.5556 154.407 56.8117 156.143 55.635C157.88 54.4583 159.31 52.8828 160.313 51.0403Z" fill="#F3F3F3"/>
<path d="M149.519 32.5782C150.379 32.5782 151.076 31.8803 151.076 31.0196C151.076 30.1588 150.379 29.4609 149.519 29.4609C148.658 29.4609 147.961 30.1588 147.961 31.0196C147.961 31.8803 148.658 32.5782 149.519 32.5782Z" fill="#060305"/>
<path d="M135.605 29.0547C136.465 29.0547 137.162 28.3569 137.162 27.4961C137.162 26.6353 136.465 25.9375 135.605 25.9375C134.744 25.9375 134.047 26.6353 134.047 27.4961C134.047 28.3569 134.744 29.0547 135.605 29.0547Z" fill="#060305"/>
<path d="M141.893 27.9609L138.656 34.4224L140.985 34.6947" stroke="#060305" stroke-width="0.591398" stroke-linecap="round" stroke-linejoin="round"/>
<path d="M142.297 37.3135C142.615 37.7104 143.043 38.0042 143.527 38.1577C144.012 38.3112 144.531 38.3176 145.019 38.1761C145.501 38.0097 145.923 37.7063 146.235 37.3031C146.547 36.8999 146.734 36.4144 146.774 35.9062" stroke="#060305" stroke-width="0.591398" stroke-linecap="round" stroke-linejoin="round"/>
<path d="M134.32 20.2643C134.754 19.6256 135.374 19.1364 136.096 18.8634C136.819 18.5904 137.607 18.5469 138.355 18.7389C139.102 18.9309 139.773 19.3489 140.274 19.9361C140.775 20.5232 141.084 21.2508 141.156 22.0196" stroke="#060305" stroke-width="0.591398" stroke-linecap="round" stroke-linejoin="round"/>
<path d="M147.312 22.8308C148.312 22.2532 149.495 22.0788 150.619 22.3431C151.743 22.6073 152.724 23.2904 153.362 24.2532" stroke="#060305" stroke-width="0.591398" stroke-linecap="round" stroke-linejoin="round"/>
<path d="M159.789 34.8047H165.355" stroke="#060305" stroke-width="0.591398" stroke-linecap="round" stroke-linejoin="round"/>
<path d="M138.961 47.4389C140.629 48.1973 142.445 48.5732 144.277 48.5392C146.108 48.5051 147.909 48.062 149.548 47.2422" stroke="#060305" stroke-width="0.591398" stroke-linecap="round" stroke-linejoin="round"/>
<path d="M163.578 140.302C167.892 140.373 172.092 138.915 175.435 136.186C177.689 134.247 179.423 131.775 180.479 128.995C181.536 126.215 181.881 123.215 181.485 120.267C181.087 117.384 179.832 114.688 177.882 112.529C175.931 110.37 173.377 108.848 170.55 108.162C167.874 107.77 165.141 108.129 162.655 109.197C160.17 110.266 158.029 112.002 156.47 114.214C156.013 114.836 155.786 115.596 155.827 116.366C155.869 117.136 156.176 117.868 156.697 118.436C156.948 118.675 157.248 118.856 157.577 118.967C157.906 119.077 158.255 119.114 158.599 119.075C158.944 119.036 159.276 118.922 159.571 118.741C159.867 118.56 160.12 118.317 160.311 118.028C161.338 116.557 162.753 115.399 164.397 114.684C166.042 113.968 167.852 113.722 169.628 113.972C171.349 114.391 172.906 115.312 174.102 116.619C175.298 117.926 176.078 119.56 176.343 121.311C176.568 123.176 176.327 125.068 175.641 126.817C174.954 128.566 173.844 130.116 172.411 131.329C170.931 132.499 169.231 133.36 167.413 133.862C165.594 134.364 163.694 134.495 161.824 134.249C157.8 133.654 153.911 132.364 150.329 130.436C150.01 130.289 149.664 130.212 149.312 130.21C148.961 130.208 148.613 130.281 148.292 130.424C147.972 130.567 147.685 130.777 147.452 131.04C147.219 131.304 147.045 131.613 146.942 131.949C146.662 132.657 146.645 133.443 146.895 134.162C147.145 134.881 147.644 135.487 148.303 135.869C152.403 138.07 156.865 139.515 161.476 140.136C162.173 140.229 162.875 140.284 163.578 140.302Z" fill="white"/>
<path d="M106.367 106.531C106.367 130.168 111.494 149.325 132.441 149.325C153.388 149.325 158.5 130.137 158.5 106.531H106.367Z" fill="white"/>
<path d="M108.016 111.371H158.424" stroke="#060305" stroke-width="0.591398" stroke-linecap="round" stroke-linejoin="round"/>
<path d="M152.75 138.11L156.077 132.48" stroke="#060305" stroke-width="0.591398" stroke-linecap="round" stroke-linejoin="round"/>
<path d="M133.969 122.376L136.494 105.73" stroke="#060305" stroke-width="0.591398" stroke-linecap="round" stroke-linejoin="round"/>
<path d="M138.083 140.046L124.32 137.564L126.816 123.718L134.242 121.902L140.579 126.185L138.083 140.046Z" fill="#FDB044"/>
<path d="M129.391 128.785H135.44" stroke="#060305" stroke-width="0.591398" stroke-linecap="round" stroke-linejoin="round"/>
<path d="M129.391 132.949L134.684 133.509" stroke="#060305" stroke-width="0.591398" stroke-linecap="round" stroke-linejoin="round"/>
<path d="M198.237 137.703C194.744 138.142 191.207 138.096 187.726 137.567C186.446 137.488 185.221 137.018 184.217 136.22C183.971 136.024 183.767 135.782 183.615 135.507C183.464 135.231 183.368 134.929 183.335 134.616C183.301 134.304 183.329 133.988 183.419 133.686C183.508 133.385 183.656 133.105 183.854 132.861C182.615 133.212 181.33 133.37 180.043 133.33C179.403 133.315 178.774 133.156 178.204 132.865C177.633 132.574 177.135 132.159 176.746 131.65C176.373 131.076 176.206 130.392 176.272 129.71C176.338 129.029 176.633 128.39 177.109 127.897C175.818 128.458 174.453 128.83 173.056 129.002C172.354 129.085 171.644 129.019 170.969 128.811C170.295 128.602 169.671 128.255 169.138 127.792C168.624 127.329 168.284 126.705 168.174 126.022C168.064 125.339 168.191 124.639 168.533 124.039C167.866 124.51 167.064 124.754 166.247 124.735C165.43 124.716 164.641 124.435 163.996 123.933C162.741 122.904 162 120.513 163.149 119.393L180.36 101.946C187.853 100.256 195.49 99.2934 203.168 99.0707C207.686 98.9411 212.115 100.35 215.729 103.066C219.343 105.782 221.929 109.645 223.064 114.023C224.199 118.401 223.815 123.034 221.975 127.165C220.136 131.297 216.95 134.681 212.938 136.765L198.237 137.703Z" fill="#F3F3F3"/>
<path d="M167.289 125.206L181.143 113.66" stroke="#060305" stroke-width="0.591398" stroke-linecap="round" stroke-linejoin="round"/>
<path d="M175.219 128.912L185.231 123.918" stroke="#060305" stroke-width="0.591398" stroke-linecap="round" stroke-linejoin="round"/>
<path d="M182.898 133.498L188.555 131.863" stroke="#060305" stroke-width="0.591398" stroke-linecap="round" stroke-linejoin="round"/>
<path d="M20.7188 89.7374C28.3117 88.7116 36.0408 89.7194 43.1175 92.6579C44.5446 93.2577 45.7672 94.259 46.6369 95.5401C47.5067 96.8213 47.9863 98.3274 48.0177 99.8759C48.1387 107.351 48.1235 114.781 48.3353 122.287C46.2784 122.801 44.524 121.53 43.0267 120.032C36.9629 114.355 31.4251 108.141 26.481 101.465C24.23 97.7269 22.3022 93.8035 20.7188 89.7374Z" fill="#F3F3F3"/>
<path d="M54.0985 135.935L51.4215 136.056C50.9387 136.081 50.4611 135.946 50.0622 135.672C49.6633 135.399 49.3651 135.002 49.2134 134.543L32.1384 79.4317C31.7852 78.2067 30.9677 77.1682 29.8601 76.5378C28.7525 75.9074 27.4426 75.7349 26.2097 76.0572C25.5842 76.244 25.0044 76.5591 24.5072 76.9823C24.01 77.4055 23.6063 77.9277 23.3218 78.5155C23.0373 79.1034 22.8782 79.744 22.8546 80.3967C22.8311 81.0494 22.9435 81.6999 23.1849 82.3068L44.5401 136.192C44.7182 136.649 44.7407 137.152 44.6039 137.622C44.4672 138.093 44.1789 138.505 43.7839 138.795L41.606 140.399C41.0032 140.843 40.5667 141.477 40.3666 142.198C40.1664 142.92 40.2141 143.688 40.502 144.379L49.5764 166.457L51.9962 165.594L47.3683 151.325C47.2466 150.951 47.2749 150.545 47.447 150.192C47.6192 149.839 47.9218 149.567 48.2908 149.433H48.3967C48.7661 149.304 49.171 149.324 49.5263 149.488C49.8817 149.651 50.1598 149.946 50.3023 150.311L55.6563 164.293L58.1366 163.43L53.5994 149.176C53.4599 148.806 53.4705 148.397 53.6287 148.035C53.787 147.673 54.0804 147.387 54.4463 147.239C54.8158 147.11 55.2206 147.13 55.576 147.293C55.9313 147.457 56.2094 147.752 56.352 148.117L61.7361 162.099L64.1711 161.236L57.4711 138.341C57.2612 137.619 56.8142 136.989 56.2022 136.552C55.5903 136.116 54.8491 135.898 54.0985 135.935Z" fill="#060305"/>
<path d="M42 144.662L56.2317 139.805" stroke="white" stroke-width="0.591398" stroke-linecap="round" stroke-linejoin="round"/>
<path d="M3.92018 128.701C2.79529 128.304 1.81861 127.572 1.12095 126.604C0.423284 125.636 0.0379531 124.477 0.0165661 123.284C-0.00482085 122.09 0.338757 120.919 1.00128 119.926C1.66381 118.934 2.61364 118.168 3.72357 117.73C2.74583 116.893 1.99792 115.819 1.55064 114.612C1.10336 113.404 0.971521 112.103 1.1676 110.83C1.38337 109.603 1.91543 108.454 2.71118 107.496C3.50693 106.538 4.53882 105.804 5.70482 105.367C4.84763 104.306 4.35524 102.997 4.30075 101.634C4.24625 100.271 4.63257 98.927 5.40234 97.8011C6.25134 96.6727 7.42532 95.8315 8.76641 95.3905C10.1075 94.9496 11.5514 94.93 12.9039 95.3346C12.6055 94.351 12.5623 93.3077 12.7784 92.3028C12.9946 91.298 13.4629 90.3647 14.1393 89.5911C14.8157 88.8175 15.6778 88.2289 16.6444 87.8809C17.6111 87.5329 18.6504 87.4369 19.6643 87.602C21.3285 88.0385 22.8771 88.8339 24.2015 89.9324C30.5234 94.472 33.7599 101.508 38.6601 107.531C43.1066 113.009 43.6511 120.832 46.3431 127.369C45.6455 127.978 44.7672 128.341 43.8435 128.401C42.9197 128.461 42.0018 128.215 41.2312 127.702L45.6777 132.832C45.3902 133.549 44.8742 134.152 44.2098 134.546C43.5453 134.94 42.7694 135.103 42.0025 135.011C40.492 134.785 39.0564 134.204 37.8132 133.316L40.838 136.782C40.5013 137.415 40.004 137.948 39.396 138.328C38.7881 138.708 38.0909 138.921 37.3746 138.945C36.034 138.969 34.707 138.673 33.5028 138.083C31.4705 137.25 29.5167 136.238 27.6649 135.056C27.6649 136.222 26.1525 136.933 25.0334 137.069C23.8566 137.107 22.69 136.841 21.6456 136.297C15.596 133.785 10.1815 130.88 3.92018 128.701Z" fill="#F3F3F3"/>
<path d="M16.8984 99.3281L42.6245 128.624" stroke="#060305" stroke-width="0.591398" stroke-linecap="round" stroke-linejoin="round"/>
<path d="M10.5859 109.844L39.5031 134.237" stroke="#060305" stroke-width="0.591398" stroke-linecap="round" stroke-linejoin="round"/>
<path d="M6.92969 120.645L27.2262 134.823" stroke="#060305" stroke-width="0.591398" stroke-linecap="round" stroke-linejoin="round"/>
<path d="M70.7801 159.552C74.447 159.552 77.4195 156.577 77.4195 152.909C77.4195 149.24 74.447 146.266 70.7801 146.266C67.1132 146.266 64.1406 149.24 64.1406 152.909C64.1406 156.577 67.1132 159.552 70.7801 159.552Z" fill="#5D7EC2"/>
<path d="M72.3984 147.399L75.4232 142.738" stroke="#060305" stroke-width="0.591398" stroke-linecap="round" stroke-linejoin="round"/>
<path d="M106.382 158.27H37.9453V181.376H106.382V158.27Z" fill="white"/>
<path d="M44.0859 164.773L55.9583 165.152" stroke="#060305" stroke-width="0.591398" stroke-linecap="round" stroke-linejoin="round"/>
<path d="M53.7656 170.434L60.3446 170.615" stroke="#060305" stroke-width="0.591398" stroke-linecap="round" stroke-linejoin="round"/>
<path d="M45.0078 176.125L50.8457 176.488" stroke="#060305" stroke-width="0.591398" stroke-linecap="round" stroke-linejoin="round"/>
<path d="M106.383 158.27H68.4062V181.376H106.383V158.27Z" fill="#FFC9C8"/>
<path d="M106.383 166.496H68.4062V173.139H106.383V166.496Z" fill="#5D7EC2"/>
<path d="M110.876 189.742H31.8524L22.3091 185.202C21.7092 184.922 21.2229 184.446 20.9308 183.851C20.6387 183.257 20.5583 182.581 20.7031 181.934C20.8478 181.288 21.2089 180.71 21.7265 180.298C22.2442 179.885 22.8873 179.661 23.5493 179.664H119.194C119.856 179.661 120.499 179.885 121.017 180.298C121.534 180.71 121.895 181.288 122.04 181.934C122.185 182.581 122.104 183.257 121.812 183.851C121.52 184.446 121.034 184.922 120.434 185.202L110.876 189.742Z" fill="white"/>
<path d="M24.2031 184.448L119.167 184.055" stroke="#060305" stroke-width="0.591398" stroke-linecap="round" stroke-linejoin="round"/>
</g>
<defs>
<clipPath id="clip0_14412_17595">
<rect width="257.865" height="189.742" fill="white"/>
</clipPath>
</defs>
</svg>
